<svg xmlns="http://www.w3.org/2000/svg" xmlns:xlink="http://www.w3.org/1999/xlink" viewBox="0 0 835 835"><defs><style>.cls-1{fill:url(#Degradado_sin_nombre_114);}.cls-2{fill:url(#Degradado_sin_nombre_122);}.cls-3{fill:url(#Degradado_sin_nombre_122-2);}.cls-4{stroke:#b3b3b3;fill:url(#Degradado_sin_nombre_32);}.cls-4,.cls-8{stroke-miterlimit:10;}.cls-5{fill:url(#Degradado_sin_nombre_32-2);}.cls-6{fill:url(#Degradado_sin_nombre_32-3);}.cls-7{fill:url(#Degradado_sin_nombre_32-4);}.cls-8{stroke:#000;fill:url(#Degradado_sin_nombre_38);}.cls-9{fill:url(#Degradado_sin_nombre_32-5);}.cls-10{fill:url(#Degradado_sin_nombre_32-6);}</style><radialGradient id="Degradado_sin_nombre_114" cx="417.5" cy="417.5" r="417.5" gradientUnits="userSpaceOnUse"><stop offset="0" stop-color="#fff"/><stop offset="0.06" stop-color="#fffdf9" stop-opacity="0.98"/><stop offset="0.14" stop-color="#fff6e9" stop-opacity="0.93"/><stop offset="0.25" stop-color="#feeccf" stop-opacity="0.85"/><stop offset="0.36" stop-color="#fdddaa" stop-opacity="0.74"/><stop offset="0.48" stop-color="#fcca7c" stop-opacity="0.6"/><stop offset="0.61" stop-color="#fbb343" stop-opacity="0.43"/><stop offset="0.63" stop-color="#fbb03b" stop-opacity="0.4"/><stop offset="0.63" stop-color="#fbb03b" stop-opacity="0.4"/><stop offset="0.87" stop-color="#f89b26" stop-opacity="0.55"/><stop offset="1" stop-color="#f7931e" stop-opacity="0.6"/></radialGradient><linearGradient id="Degradado_sin_nombre_122" x1="153" y1="543.16" x2="682" y2="543.16" gradientUnits="userSpaceOnUse"><stop offset="0" stop-color="#c7b299" stop-opacity="0.6"/><stop offset="0.26" stop-color="#c7b299" stop-opacity="0.7"/><stop offset="0.3" stop-color="#baa68f" stop-opacity="0.73"/><stop offset="0.59" stop-color="#706157" stop-opacity="0.93"/><stop offset="0.74" stop-color="#534741"/></linearGradient><linearGradient id="Degradado_sin_nombre_122-2" x1="264" y1="179" x2="550" y2="179" xlink:href="#Degradado_sin_nombre_122"/><linearGradient id="Degradado_sin_nombre_32" x1="152.53" y1="547.84" x2="681.96" y2="547.84" gradientUnits="userSpaceOnUse"><stop offset="0" stop-color="#ccc"/><stop offset="0.05" stop-color="#bbb"/><stop offset="0.24" stop-color="#838383"/><stop offset="0.42" stop-color="#545454"/><stop offset="0.59" stop-color="#303030"/><stop offset="0.74" stop-color="#151515"/><stop offset="0.89" stop-color="#060606"/><stop offset="1"/></linearGradient><linearGradient id="Degradado_sin_nombre_32-2" x1="601.75" y1="535.75" x2="640.75" y2="535.75" xlink:href="#Degradado_sin_nombre_32"/><linearGradient id="Degradado_sin_nombre_32-3" x1="628.75" y1="405.75" x2="718.75" y2="405.75" xlink:href="#Degradado_sin_nombre_32"/><linearGradient id="Degradado_sin_nombre_32-4" x1="705.75" y1="406.25" x2="741.75" y2="406.25" xlink:href="#Degradado_sin_nombre_32"/><linearGradient id="Degradado_sin_nombre_38" x1="599.75" y1="549.34" x2="644.75" y2="549.34" gradientUnits="userSpaceOnUse"><stop offset="0" stop-color="#ccc"/><stop offset="0.1" stop-color="#c6c6c6"/><stop offset="0.22" stop-color="#b7b7b7"/><stop offset="0.35" stop-color="#9d9d9d"/><stop offset="0.5" stop-color="#787878"/><stop offset="0.65" stop-color="#4a4a4a"/><stop offset="0.72" stop-color="#333"/></linearGradient><linearGradient id="Degradado_sin_nombre_32-5" x1="269.02" y1="91.27" x2="540.99" y2="91.27" xlink:href="#Degradado_sin_nombre_32"/><linearGradient id="Degradado_sin_nombre_32-6" x1="187.48" y1="168.66" x2="478.75" y2="168.66" xlink:href="#Degradado_sin_nombre_32"/></defs><title>p_default_2</title><g id="Capa_2" data-name="Capa 2"><g id="Capa_1-2" data-name="Capa 1"><circle class="cls-1" cx="417.5" cy="417.5" r="417.5"/></g><g id="cuerpo_completo" data-name="cuerpo completo"><path class="cls-2" d="M511.77,287.31a143,143,0,0,1-203.43,6.2C216.72,335.08,153,427.35,153,534.5,153,680.58,271.42,799,417.5,799S682,680.58,682,534.5C682,421.63,611.29,325.29,511.77,287.31Z"/><g id="cabeza"><circle class="cls-3" cx="407" cy="179" r="143"/></g></g><g id="Cinturon"><path class="cls-4" d="M158.75,464.25s306,94,512-10c11,71,15,86,7,131s-313,98-519,4C144.75,523.25,158.75,464.25,158.75,464.25Z"/><rect class="cls-5" x="601.75" y="342.25" width="39" height="387" rx="12"/><rect class="cls-6" x="628.75" y="392.25" width="90" height="27" rx="12"/><circle class="cls-7" cx="723.75" cy="406.25" r="18"/><path class="cls-8" d="M600.75,523.25c14,5,32,8,44-2v48s-18,17-45,2C599.75,546.25,600.75,523.25,600.75,523.25Z"/></g><g id="Gorra"><path class="cls-9" d="M541,128.94s-66.24,22.31-148.24,21.31S269,141.33,269,141.33,290.75,34.25,396.75,32.25C527.75,33.25,541,128.94,541,128.94Z"/><path class="cls-10" d="M268.75,141.25s-47,22-79,25c-20,4,97,40,153,27s136-50,136-50S352.75,157.25,268.75,141.25Z"/></g></g></svg>