<svg xmlns="http://www.w3.org/2000/svg" xmlns:xlink="http://www.w3.org/1999/xlink" viewBox="0 0 845 845"><defs><style>.cls-1{fill:none;stroke:gray;stroke-width:10px;}.cls-1,.cls-10,.cls-6{stroke-miterlimit:10;}.cls-2{fill:url(#Degradado_sin_nombre_88);}.cls-3{fill:url(#Degradado_sin_nombre_18);}.cls-4{fill:url(#Degradado_sin_nombre_18-2);}.cls-5{fill:url(#Degradado_sin_nombre_18-3);}.cls-6{stroke:#b3b3b3;fill:url(#Degradado_sin_nombre_32);}.cls-7{fill:url(#Degradado_sin_nombre_32-2);}.cls-8{fill:url(#Degradado_sin_nombre_32-3);}.cls-9{fill:url(#Degradado_sin_nombre_32-4);}.cls-10{stroke:#000;fill:url(#Degradado_sin_nombre_38);}.cls-11{fill:url(#Degradado_sin_nombre_32-5);}.cls-12{fill:url(#Degradado_sin_nombre_32-6);}</style><radialGradient id="Degradado_sin_nombre_88" cx="422.5" cy="422.5" r="417.5" gradientUnits="userSpaceOnUse"><stop offset="0" stop-color="#fff"/><stop offset="0.06" stop-color="#fffcf9" stop-opacity="0.99"/><stop offset="0.15" stop-color="#fff6e7" stop-opacity="0.96"/><stop offset="0.26" stop-color="#feeacb" stop-opacity="0.92"/><stop offset="0.38" stop-color="#fddaa3" stop-opacity="0.86"/><stop offset="0.5" stop-color="#fcc671" stop-opacity="0.78"/><stop offset="0.63" stop-color="#fbb03b" stop-opacity="0.7"/><stop offset="0.76" stop-color="#f9a42f" stop-opacity="0.74"/><stop offset="1" stop-color="#f7931e" stop-opacity="0.8"/></radialGradient><linearGradient id="Degradado_sin_nombre_18" x1="167.17" y1="400.26" x2="674.75" y2="400.26" gradientUnits="userSpaceOnUse"><stop offset="0" stop-color="#fff"/><stop offset="0.06" stop-color="#e3e3e3"/><stop offset="0.19" stop-color="#aeaeae"/><stop offset="0.32" stop-color="#828282"/><stop offset="0.44" stop-color="#606060"/><stop offset="0.55" stop-color="#474747"/><stop offset="0.66" stop-color="#383838"/><stop offset="0.74" stop-color="#333"/></linearGradient><linearGradient id="Degradado_sin_nombre_18-2" x1="269" y1="184" x2="555" y2="184" xlink:href="#Degradado_sin_nombre_18"/><linearGradient id="Degradado_sin_nombre_18-3" x1="158" y1="548.16" x2="687" y2="548.16" xlink:href="#Degradado_sin_nombre_18"/><linearGradient id="Degradado_sin_nombre_32" x1="157.53" y1="552.84" x2="686.96" y2="552.84" gradientUnits="userSpaceOnUse"><stop offset="0" stop-color="#ccc"/><stop offset="0.05" stop-color="#bbb"/><stop offset="0.24" stop-color="#838383"/><stop offset="0.42" stop-color="#545454"/><stop offset="0.59" stop-color="#303030"/><stop offset="0.74" stop-color="#151515"/><stop offset="0.89" stop-color="#060606"/><stop offset="1"/></linearGradient><linearGradient id="Degradado_sin_nombre_32-2" x1="606.75" y1="540.75" x2="645.75" y2="540.75" xlink:href="#Degradado_sin_nombre_32"/><linearGradient id="Degradado_sin_nombre_32-3" x1="633.75" y1="410.75" x2="723.75" y2="410.75" xlink:href="#Degradado_sin_nombre_32"/><linearGradient id="Degradado_sin_nombre_32-4" x1="710.75" y1="411.25" x2="746.75" y2="411.25" xlink:href="#Degradado_sin_nombre_32"/><linearGradient id="Degradado_sin_nombre_38" x1="604.75" y1="554.34" x2="649.75" y2="554.34" gradientUnits="userSpaceOnUse"><stop offset="0" stop-color="#ccc"/><stop offset="0.1" stop-color="#c6c6c6"/><stop offset="0.22" stop-color="#b7b7b7"/><stop offset="0.35" stop-color="#9d9d9d"/><stop offset="0.5" stop-color="#787878"/><stop offset="0.65" stop-color="#4a4a4a"/><stop offset="0.72" stop-color="#333"/></linearGradient><linearGradient id="Degradado_sin_nombre_32-5" x1="274.02" y1="96.27" x2="545.99" y2="96.27" xlink:href="#Degradado_sin_nombre_32"/><linearGradient id="Degradado_sin_nombre_32-6" x1="192.48" y1="173.66" x2="483.75" y2="173.66" xlink:href="#Degradado_sin_nombre_32"/></defs><title>Recurso 1</title><g id="Capa_2" data-name="Capa 2"><g id="Capa_3" data-name="Capa 3"><circle class="cls-1" cx="422.5" cy="422.5" r="417.5"/></g><g id="Capa_1-2" data-name="Capa 1"><circle class="cls-2" cx="422.5" cy="422.5" r="417.5"/></g><g id="Cuerpo_mitad" data-name="Cuerpo mitad"><path class="cls-3" d="M674.75,459.74a265.22,265.22,0,0,0-158-167.43,143,143,0,0,1-203.43,6.2A265.12,265.12,0,0,0,167.17,470.26C201.14,480.1,481.52,556.55,674.75,459.74Z"/><g id="cabeza"><circle class="cls-4" cx="412" cy="184" r="143"/></g></g><g id="cuerpo_completo" data-name="cuerpo completo"><path class="cls-5" d="M516.77,292.31a143,143,0,0,1-203.43,6.2C221.72,340.08,158,432.35,158,539.5,158,685.58,276.42,804,422.5,804S687,685.58,687,539.5C687,426.63,616.29,330.29,516.77,292.31Z"/><g id="cabeza-2" data-name="cabeza"><circle class="cls-4" cx="412" cy="184" r="143"/></g></g><g id="Cinturon"><path class="cls-6" d="M163.75,469.25s306,94,512-10c11,71,15,86,7,131s-313,98-519,4C149.75,528.25,163.75,469.25,163.75,469.25Z"/><rect class="cls-7" x="606.75" y="347.25" width="39" height="387" rx="12"/><rect class="cls-8" x="633.75" y="397.25" width="90" height="27" rx="12"/><circle class="cls-9" cx="728.75" cy="411.25" r="18"/><path class="cls-10" d="M605.75,528.25c14,5,32,8,44-2v48s-18,17-45,2C604.75,551.25,605.75,528.25,605.75,528.25Z"/></g><g id="Gorra"><path class="cls-11" d="M546,133.94s-66.24,22.31-148.24,21.31S274,146.33,274,146.33,295.75,39.25,401.75,37.25C532.75,38.25,546,133.94,546,133.94Z"/><path class="cls-12" d="M273.75,146.25s-47,22-79,25c-20,4,97,40,153,27s136-50,136-50S357.75,162.25,273.75,146.25Z"/></g></g></svg>